<svg xmlns="http://www.w3.org/2000/svg" width="30.318" height="48.352" viewBox="0 0 30.318 48.352"><g transform="translate(0)"><path d="M120.484,26.9c-.543-.424-6.208-6.711-7.738-7.6V2.991A2.989,2.989,0,0,0,109.755,0H94.349a2.989,2.989,0,0,0-2.991,2.991V31.554a2.989,2.989,0,0,0,2.991,2.991h6.711l-.276-2.349c-.089-.079-.148-.128-.237-.207H97.586A3.034,3.034,0,0,0,93.9,28.3V6.06a3.385,3.385,0,0,0,.553.049,3.031,3.031,0,0,0,3.03-3.03,3.244,3.244,0,0,0-.049-.533h9.2a3.244,3.244,0,0,0-.049.533,3.024,3.024,0,0,0,3.03,3.03,3.385,3.385,0,0,0,.553-.049v21.7h0V34a11.33,11.33,0,0,1-2.211-3.178s-.572-6.405-3.82-6.405a2.23,2.23,0,0,0-.257.01s-2.458.207-.424,7.235l.908,7.807a17.731,17.731,0,0,0,3.82,7.165V47.5a.849.849,0,0,0,.849.849h9.13A.844.844,0,0,0,119,47.6c.326-3.04,1.589-14.341,2.329-16.058a3.239,3.239,0,0,0,.257-.849A3.9,3.9,0,0,0,120.484,26.9Z" transform="translate(-91.358)" fill="#fff"/><g transform="translate(9.208 6.109)"><ellipse cx="1.816" cy="1.816" rx="1.816" ry="1.816" fill="#fff"/></g><g transform="translate(4.135 10.916)"><path d="M133.258,117.163a6.572,6.572,0,0,0,5.122,6.405,4.641,4.641,0,0,1,.286-.474,3.8,3.8,0,0,1,2.724-1.707,4.823,4.823,0,0,1,.533-.03,5.05,5.05,0,0,1,2.379.592,6.561,6.561,0,1,0-11.044-4.787Zm2.625-.582c.395,0,.4,0,.464-.395a3.9,3.9,0,0,1,.257-.878.251.251,0,0,1,.336-.168c.247.069.484.138.73.217.227.069.257.148.158.365a2.714,2.714,0,0,0-.276,1.392.9.9,0,0,0,.079.365.527.527,0,0,0,.938.128,2.245,2.245,0,0,0,.336-.6c.158-.375.306-.75.493-1.1a1.97,1.97,0,0,1,3-.632,2.131,2.131,0,0,1,.7,1.1.3.3,0,0,0,.345.266c.2-.01.385,0,.582,0a.233.233,0,0,1,.266.257q.015.311,0,.622c0,.188-.109.266-.286.266h-.424c-.316,0-.326.01-.375.316a4,4,0,0,1-.316,1.115c-.138.276-.207.306-.493.227-.217-.059-.434-.118-.642-.188-.247-.079-.276-.148-.158-.375a3.582,3.582,0,0,0,.375-1.234,1.427,1.427,0,0,0-.109-.809.627.627,0,0,0-1.105-.148,1.668,1.668,0,0,0-.266.464,11.173,11.173,0,0,1-.563,1.263,1.77,1.77,0,0,1-1.707,1.007,1.888,1.888,0,0,1-1.747-1.372c-.118-.336-.118-.336-.474-.345h-.355c-.266-.01-.316-.049-.316-.316v-.247C135.321,116.591,135.321,116.591,135.883,116.581Z" transform="translate(-133.258 -110.6)" fill="#fff"/></g></g></svg>