<?xml version="1.0" encoding="utf-8"?>
<!-- Generator: Adobe Illustrator 23.0.2, SVG Export Plug-In . SVG Version: 6.00 Build 0)  -->
<svg version="1.1" id="Layer_1" xmlns="http://www.w3.org/2000/svg" xmlns:xlink="http://www.w3.org/1999/xlink" x="0px" y="0px"
	 viewBox="0 0 225.0604 230.5125" enable-background="new 0 0 225.0604 230.5125" xml:space="preserve">
<g>
	<path d="M73.5495,43.1798c11.4219,4.8864,24.6417-0.4114,29.5294-11.835c4.8871-11.4199-0.4116-24.6398-11.8337-29.5253
		C79.8234-3.068,66.6016,2.2304,61.7145,13.6503C56.8289,25.0723,62.1273,38.2941,73.5495,43.1798z"/>
	<path d="M106.7445,78.3177c0.7397-0.9902,1.8198-1.6323,3.0425-1.8081c0.2251-0.0327,0.4502-0.0488,0.6738-0.0488
		c0.9902,0,1.9497,0.3169,2.7568,0.9204c0.9608,0.7183,1.5851,1.7612,1.781,2.9424c1.2579,0.717,2.351,1.6902,3.2039,2.8594
		l4.7994-0.6953l-3.3225,3.6021c0.2811,0.8723,0.4582,1.7939,0.4993,2.755c0.0194,0.4532-0.0012,0.901-0.0395,1.3455
		c0.0174,0.0156,0.0378,0.0262,0.0549,0.042c1.874,1.7275,1.9922,4.6597,0.2632,6.5352c-0.8379,0.9082-1.9785,1.4355-3.2124,1.4854
		c-0.6279,0.0282-1.2425-0.0756-1.816-0.2924c-0.6903,0.4424-1.4252,0.8055-2.2003,1.0699c1.1156,0.795,2.4381,1.2264,3.8224,1.2264
		c0.0913,0,0.1831-0.002,0.2744-0.0054c1.7676-0.0718,3.4019-0.8271,4.6021-2.1279c2.4766-2.687,2.3071-6.8867-0.3779-9.3618
		c-0.2331-0.2149-0.4823-0.4039-0.7383-0.5804l5.7233-6.2053l20.2923-2.9398l-0.3207-2.2266l-17.551,2.542l12.0222-13.0344
		l-1.653-1.5253L125.4229,79.863l-8.3578,1.2105c-0.0014-0.3117-0.017-0.6246-0.0627-0.9385
		c-0.2515-1.75-1.1704-3.2969-2.5874-4.356c-1.418-1.0601-3.1621-1.5044-4.9141-1.249c-1.751,0.252-3.2993,1.1719-4.3589,2.5908
		c-0.4803,0.6434-0.827,1.3561-1.0464,2.1043l2.1641-0.0927C106.3927,78.8485,106.5525,78.5749,106.7445,78.3177z"/>
	<path d="M61.2218,54.4121c-2.3472-3.7441-7.2842-4.874-11.0278-2.5273c-3.7432,2.3467-4.875,7.2842-2.5278,11.0273l20.1514,32.1367
		c1.4673,2.3398,4.0313,3.75,6.7769,3.75c0.1143,0,0.229-0.002,0.3438-0.0078l35.293-1.5127
		c4.4141-0.1885,7.8389-3.9209,7.6499-8.335s-3.9111-7.8779-8.3354-7.6494l-30.644,1.3125L61.2218,54.4121z"/>
	<path d="M34.6225,143.5374c0.9053-0.7544,1.5837-1.7191,2.0729-2.8369l12.9529,25.0219l-6.9766,50.5806
		c-0.9434,6.8389,3.8359,13.1475,10.6748,14.0908c0.5796,0.0801,1.1548,0.1187,1.7236,0.1187
		c6.1455,0,11.5039-4.5342,12.3672-10.7935l7.5186-54.5112c0.3525-2.5576-0.0952-5.1616-1.2817-7.4546l-20.8099-40.2004
		c0.0071-0.0495,0.0146-0.0967,0.0217-0.1465c-5.8375,2.3237-12.8855,3.5104-18.0976,4.1077
		c-0.5145-1.3132-1.0884-2.6156-1.7087-3.8497c5.6296-0.582,14.1633-1.899,20.2056-4.7899
		c0.802-8.8632,3.3795-18.0242,6.3471-26.5493L45.7174,64.1338c-1.4614-2.3311-1.9277-5.0908-1.313-7.7725
		c0.6147-2.6826,2.2368-4.9639,4.5679-6.4248c1.6436-1.0303,3.5332-1.5752,5.4653-1.5752c3.5728,0,6.8374,1.8057,8.7329,4.8291
		l6.0017,9.5711l21.588,11.1455c1.1465,0.5918,2.4058,0.8916,3.6699,0.8916c0.8975,0,1.7974-0.1509,2.6606-0.4556l40.167-14.1665
		c4.167-1.4692,6.3535-6.0386,4.8838-10.2051c-1.4692-4.167-6.0386-6.3545-10.2051-4.8838L95.0287,58.1043L62.3955,41.2566
		c-0.0839-0.04-0.158-0.0932-0.2433-0.1313c-0.1082-0.0483-0.2208-0.0911-0.3307-0.1373c-0.1623-0.0717-0.325-0.14-0.4896-0.2001
		c-8.075-3.0756-20.4589-0.3931-27.7227,12.6943c-10.2222,18.676-13.9551,31.3498-15.2869,53.673
		c0.0706,4.2962,0.8533,7.704,2.1254,10.431c-0.566,0.9202-1.1852,1.8118-1.8362,2.6765l-1.1208-2.01
		c0.3095-0.5747,0.5228-1.2131,0.6113-1.898c0.3862-3.0093-1.7471-5.771-4.7549-6.1572c-1.4561-0.186-2.8999,0.2051-4.063,1.1025
		c-1.1631,0.8984-1.9063,2.1953-2.0933,3.6523c-0.3857,3.0039,1.7461,5.7656,4.7539,6.1563
		c0.2368,0.0303,0.4712,0.0454,0.7036,0.0454c1.2991,0,2.5109-0.4719,3.4699-1.2559l1.1501,2.0626
		c-1.3868,1.6749-2.8451,3.2328-4.2102,4.6685l-2.0966-0.5177c0.3383-2.9769-1.7796-5.6938-4.7596-6.0771
		c-1.4561-0.186-2.8994,0.2036-4.0625,1.1021c-1.1631,0.8979-1.9063,2.1953-2.0933,3.6519
		c-0.1885,1.4565,0.2026,2.8994,1.1011,4.0625c0.8984,1.1631,2.1953,1.9067,3.6519,2.0938
		c0.2368,0.0308,0.4717,0.0454,0.7046,0.0454c2.074-0.0004,3.9376-1.1802,4.8688-2.9642l1.1009,0.2719
		c-2.7067,2.8692-4.7334,5.2297-4.937,7.4447c-0.2578,2.8037,3.4312,5.7896,6.9692,7.6489c3.3823,1.7778,7.748,3.168,11.9805,3.168
		C28.7909,146.5594,32.0141,145.7113,34.6225,143.5374z M12.2011,119.1253c-1.9146-0.249-3.272-2.0063-3.0269-3.918
		c0.1191-0.9272,0.5923-1.7524,1.3325-2.3242c0.6191-0.4785,1.3633-0.731,2.1328-0.731c0.1504,0,0.3013,0.0098,0.4526,0.0288
		c1.9146,0.2461,3.272,2.0039,3.0264,3.9185C15.871,118.014,14.1083,119.3763,12.2011,119.1253z M8.9721,125.9368
		c-0.2461,1.9136-2.0034,3.2695-3.918,3.0244c-0.9268-0.1191-1.752-0.5923-2.3237-1.3325
		c-0.5713-0.7402-0.8203-1.6577-0.7007-2.5845c0.1191-0.9277,0.5923-1.7534,1.3325-2.3252c0.6187-0.478,1.3618-0.7305,2.1304-0.7305
		c0.1509,0,0.3022,0.0098,0.4536,0.0293h0.0005C7.8602,122.2645,9.2177,124.0223,8.9721,125.9368z M24.7099,113.1824
		c0.1641-0.5166,0.5156-1.3857,1.0229-1.3994c0.0063,0,0.0127,0,0.019,0c1.3643,0,4.6743,3.8066,7.3926,11.0161
		c2.563,6.7979,4.1528,15.9058,0.1978,19.2022c-4.8569,4.0483-12.9956,2.7271-18.9058-0.3804
		c-3.9854-2.0942-6.0186-4.4976-5.9087-5.6958c0.167-1.814,2.6367-4.4072,5.4966-7.4097
		C17.911,124.4354,22.7479,119.3572,24.7099,113.1824z"/>
	<circle cx="178.49" cy="60.1851" r="22.5"/>
	<path d="M175.3148,116.6321c0.2231-0.9976,0.5098-1.979,0.7871-2.9277c0.1563-0.5347,0.3096-1.0605,0.4497-1.5801
		c2.3726-6.5679,1.9829-13.8984-1.0454-19.6221c-2.3921-4.5225-6.2788-7.6475-10.9458-8.7988
		c-1.8184-0.4482-3.748-0.6753-5.7354-0.6753c-8.7544,0-21.1055,4.9009-27.1084,18.7212
		c-3.5528,8.3203-8.7891,22.1003-13.5438,34.9361l-0.3376-2.813c-0.6582-5.4834-5.644-9.395-11.1201-8.7373
		c-5.4834,0.6577-9.3955,5.6367-8.7373,11.1201l5,41.667c0.603,5.0259,4.8667,8.8086,9.9287,8.8086h23.0556v6.6664h6.9167v27
		h-23.0833c-2.475,0-4.5,2.025-4.5,4.5c0,2.475,2.025,4.5,4.5,4.5h53.6666c2.475,0,4.5-2.025,4.5-4.5c0-2.475-2.025-4.5-4.5-4.5
		h-23.0833v-27h6.9167v-6.6664h5.2775c0.8097,0,1.5928-0.1068,2.3467-0.2884c3.3968,0.1061,6.7901,0.1551,10.1347,0.1551
		c4.2762,0,8.4693-0.0779,12.4932-0.2056l11.1181,34.8086c1.6963,5.312,6.6113,8.7007,11.9043,8.7002
		c1.2598,0,2.542-0.1924,3.8062-0.5962c6.5762-2.1001,10.2046-9.1343,8.104-15.7104l-9.1785-28.7369
		c5.4824-0.4759,9.0583-0.8854,9.7796-0.9701l1.979-0.2324l-0.7705-1.8374c-0.0718-0.1709-7.1978-17.1963-9.6138-25.1875
		c-1.021-3.3765-6.3247-6.3516-13.665-10.4697C188.8988,139.3646,172.31,130.0584,175.3148,116.6321z M109.8939,168.2254
		c2.0835-5.8364,17.1011-47.7788,24.5781-65.2896c5.4204-12.4795,16.5063-16.9077,24.353-16.9077
		c1.7456,0,3.4341,0.1978,5.0171,0.5884c3.8252,0.9434,7.0254,3.5317,9.0122,7.2886c2.6475,5.0044,2.9678,11.4546,0.856,17.2544
		l-0.0391,0.1245c-0.1392,0.519-0.293,1.0444-0.4492,1.5791c-0.2905,0.9946-0.5903,2.0225-0.835,3.1138
		c-3.4922,15.6055,14.2217,25.5435,27.1563,32.7993c5.6978,3.1968,11.5898,6.502,12.2607,8.7217
		c2.0083,6.6416,7.0132,18.9385,8.9482,23.6235C206.8339,182.5623,124.0883,190.137,109.8939,168.2254z"/>
	<path d="M121.4926,159.3826c0.1416-0.4146,14.2451-41.5859,19.8154-51.9839c5.2139-9.7324,12.2388-10.939,12.5586-10.9888
		c0.8164-0.1206,1.3823-0.8784,1.2656-1.6963c-0.1177-0.8203-0.8765-1.3931-1.6973-1.2725
		c-0.356,0.0508-8.7896,1.3745-14.7715,12.5405c-5.6846,10.6118-19.4272,50.7275-20.0098,52.4302
		c-0.2681,0.7837,0.1504,1.6367,0.9341,1.9048c0.1606,0.0547,0.3247,0.0811,0.4854,0.0811
		C120.6967,160.3978,121.2792,160.0057,121.4926,159.3826z"/>
</g>
</svg>
