<svg xmlns="http://www.w3.org/2000/svg" width="24.635" height="24.635" viewBox="0 0 24.635 24.635">
  <path id="bed" d="M22.469,8.752V0H2.165V8.752A2.892,2.892,0,0,0,0,11.547V24.635H4.33V21.652H20.3v2.983h4.33V11.547a2.892,2.892,0,0,0-2.165-2.8ZM21.026,1.443V8.661H19.583V4.33H5.052v4.33H3.609V1.443ZM18.139,8.661H6.5V5.774H18.139ZM2.887,10.1H21.748a1.445,1.445,0,0,1,1.443,1.443H1.443A1.445,1.445,0,0,1,2.887,10.1ZM1.443,15.878V12.991H23.191v2.887Zm21.748,1.443v2.887H1.443V17.321Zm-20.3,5.87H1.443v-1.54H2.887Zm18.861,0v-1.54h1.443v1.54Zm0,0" fill="#0b3b51"/>
</svg>
