<svg xmlns="http://www.w3.org/2000/svg" width="30.811" height="30.811" viewBox="0 0 30.811 30.811">
  <path id="bed" d="M28.1,10.946V0H2.708V10.946A3.617,3.617,0,0,0,0,14.443V30.811H5.416V27.08H25.4v3.731h5.416V14.443a3.617,3.617,0,0,0-2.708-3.5ZM26.3,1.805v9.027H24.492V5.416H6.319v5.416H4.513V1.805Zm-3.611,9.027H8.124V7.221H22.687ZM3.611,12.637H27.2a1.807,1.807,0,0,1,1.805,1.805H1.805A1.807,1.807,0,0,1,3.611,12.637ZM1.805,19.859V16.248h27.2v3.611Zm27.2,1.805v3.611H1.805V21.664Zm-25.4,7.342H1.805V27.08H3.611Zm23.59,0V27.08h1.805v1.926Zm0,0" fill="#fff"/>
</svg>
