<svg xmlns="http://www.w3.org/2000/svg" viewBox="0 0 154.41 118.43"><defs><style>.cls-1{fill:#fff;}.cls-2{fill:none;}</style></defs><title>E-bike icon L</title><g id="Layer_2" data-name="Layer 2"><g id="Layer_1-2" data-name="Layer 1"><path class="cls-1" d="M67 80.66a7.37 7.37.0 01-1.32-.12l-33-4.8a3.5 3.5.0 01-2.92-2.82 3.34 3.34.0 011.64-3.5L58 48.89a2 2 0 00.71-2.06L55.9 35.73 62 34.06l2.82 10.49a.45.45.0 00.24.3.5.5.0 00.39.0l42.12-17.35 6.71 15.54L107 46.2l-3.4-6.13L72.66 78A7.29 7.29.0 0167 80.66M58.54 37.27l2.29 9a4.17 4.17.0 01-1.49 4.32L32.61 71.22a1.21 1.21.0 00-.71 1.31A1.3 1.3.0 0033 73.59l33 4.8a5.17 5.17.0 005-1.75L102 38.7a2.12 2.12.0 011.82-.76A2.07 2.07.0 01105.47 39l2.44 4.4 3.5-1.5-5-11.58L66.27 46.87a2.62 2.62.0 01-2.19-.07 2.66 2.66.0 01-1.38-1.69l-2.25-8.37z"/><path class="cls-1" d="M73.75 67l-1.89-3.91a8.18 8.18.0 012.58-7.43c2.94-2.84 12-11.38 12-11.38s3.19-2.95 8.69-1.39z"/><path class="cls-1" d="M75.81 75.19h0l-2.68 4.32a3.15 3.15.0 01-2.22 1.71 50.27 50.27.0 01-5.66.86c-1 .11-1.33-.27-1.33-.27s-1.31-.9-1.72-1.15-.81.0-1.27.36l-.46.38c-.45.35-.88.06-1.41-.35a2.31 2.31.0 00-.39-.27c-.69-.36-1-1.37-.77-2.93a8.77 8.77.0 012.45-5.2 9.11 9.11.0 013.82-2.16l6.53-1.86h0a6.85 6.85.0 012 .08 1.11 1.11.0 01.89.71v0s2.26 3.84 2.54 4.46c.2.43-.17 1.11-.33 1.33"/><path class="cls-1" d="M122.67 98a25.68 25.68.0 01-12.58-48.06 1.64 1.64.0 011.61 2.85 22.4 22.4.0 1011-2.87 20.64 20.64.0 00-6.62 1.1 1.63 1.63.0 11-1-3.11 23.72 23.72.0 017.62-1.26 25.68 25.68.0 010 51.35"/><path class="cls-1" d="M122.67 92.3A20 20 0 01112.5 55.09a.81.81.0 11.83 1.4 18.28 18.28.0 104.08-1.78.81.81.0 01-1-.55.82.82.0 01.55-1 20 20 0 115.73 39.16"/><polygon class="cls-1" points="120.18 74.96 107.75 45.31 109.76 44.47 121.32 72.05 122.91 71.34 111.33 43.7 113.34 42.86 125.74 72.45 120.18 74.96"/><path class="cls-1" d="M112.24 23.79a3.45 3.45.0 113.45-3.45 3.46 3.46.0 01-3.45 3.45m0-5.26a1.81 1.81.0 101.81 1.81 1.81 1.81.0 00-1.81-1.81"/><path class="cls-1" d="M33.8 98A25.68 25.68.0 1159.47 72.3 25.71 25.71.0 0133.8 98m0-48.08A22.41 22.41.0 1056.2 72.3 22.43 22.43.0 0033.8 49.9"/><path class="cls-1" d="M33.8 92.3a20 20 0 1120-20 20 20 0 01-20 20m0-38.3A18.36 18.36.0 1052.16 72.3 18.37 18.37.0 0033.8 54"/><path class="cls-1" d="M69.81 73.08l-5-21.14A2 2 0 0166 49.63l32.8-13.72a.92.92.0 011.14.32.93.93.0 010 1.18zM65.89 51.69l4.49 19 28.37-33.6L66.43 50.64a.91.91.0 00-.54 1"/><path class="cls-1" d="M67.48 75.76 57.61 74.5l.14-1.08 8.31 1.06-4.92-20.71A.77.77.0 0060 53.32l-6.29 4.61L53 57.05l6.3-4.62a1.85 1.85.0 011.73-.22 1.87 1.87.0 011.15 1.31z"/><polygon class="cls-1" points="103.49 30.72 99.53 22.09 109.56 20.13 109.98 22.26 102.66 23.7 105.47 29.81 103.49 30.72"/><path class="cls-1" d="M55.73 20.67s-13.23-1.9-11.39-.15 4.54 5 10.28 3.81 14.08-.07 13.73-1.68-12.62-2-12.62-2"/><rect class="cls-1" x="56.64" y="22.67" width="2.18" height="13.62" transform="translate(-5.07 13.43) rotate(-12.71)"/><rect class="cls-2" width="154.41" height="118.43"/></g></g></svg>