<svg xmlns="http://www.w3.org/2000/svg" width="47.583" height="47.583" viewBox="0 0 47.583 47.583"><g transform="translate(0 16.295)"><path d="M46.654,178.23H39.033v-1.967a.929.929,0,0,0-.929-.929H18.03a.929.929,0,0,0,0,1.859H37.174v7.125a17.707,17.707,0,0,1-8.738,15.242H10.6a17.707,17.707,0,0,1-8.738-15.241v-7.125H8.085a.929.929,0,0,0,0-1.859H.929a.929.929,0,0,0-.929.929v8.054a19.484,19.484,0,0,0,7.329,15.242H.929a.929.929,0,0,0-.929.929,6.141,6.141,0,0,0,6.134,6.134h29a6.141,6.141,0,0,0,6.134-6.134.929.929,0,0,0-.929-.929H31.7a19.628,19.628,0,0,0,4.3-4.8H38.63a8.963,8.963,0,0,0,8.953-8.953v-6.645A.929.929,0,0,0,46.654,178.23ZM39.3,201.417a4.283,4.283,0,0,1-4.173,3.346h-29a4.283,4.283,0,0,1-4.173-3.346H39.3Zm-.27-17.1v-.511h2.974v2a3.38,3.38,0,0,1-3.377,3.377h-.211A19.564,19.564,0,0,0,39.033,184.317Zm6.691,1.487A7.1,7.1,0,0,1,38.63,192.9H37.049a19.4,19.4,0,0,0,.793-1.859h.788a5.241,5.241,0,0,0,5.235-5.235v-2.927a.929.929,0,0,0-.929-.929h-3.9v-1.859h6.691Z" transform="translate(0 -175.333)" fill="#fff"/></g><g transform="translate(17.526 0)"><path d="M191.463,5.143l-.484-.607a2.422,2.422,0,0,1,0-3.029A.929.929,0,0,0,189.521.351a4.273,4.273,0,0,0,0,5.343l.484.607a3.166,3.166,0,0,1,0,3.959l-.5.624a.929.929,0,1,0,1.456,1.155l.5-.624A5.016,5.016,0,0,0,191.463,5.143Z" transform="translate(-188.585 0)" fill="#fff"/></g><g transform="translate(22.678 2.09)"><path d="M246.892,27.627l-.484-.607a2.423,2.423,0,0,1,0-3.029.929.929,0,0,0-1.456-1.155,4.273,4.273,0,0,0,0,5.343l.484.607a3.166,3.166,0,0,1,0,3.959l-.5.624a.929.929,0,1,0,1.456,1.155l.5-.624A5.016,5.016,0,0,0,246.892,27.627Z" transform="translate(-244.014 -22.484)" fill="#fff"/></g><g transform="translate(12.375 2.09)"><path d="M136.034,27.628l-.484-.607a2.423,2.423,0,0,1,0-3.029.929.929,0,0,0-1.456-1.156,4.273,4.273,0,0,0,0,5.343l.484.607a3.166,3.166,0,0,1,0,3.959l-.5.624a.929.929,0,1,0,1.456,1.156l.5-.624A5.017,5.017,0,0,0,136.034,27.628Z" transform="translate(-133.156 -22.485)" fill="#fff"/></g><g transform="translate(12.38 16.295)"><path d="M134.8,175.6a.93.93,0,1,0,.272.657A.936.936,0,0,0,134.8,175.6Z" transform="translate(-133.21 -175.33)" fill="#fff"/></g><g transform="translate(28.605 24.349)"><path d="M312.832,262a.929.929,0,0,0-.929.929,13.316,13.316,0,0,1-3.839,9.3.929.929,0,1,0,1.32,1.308,15.188,15.188,0,0,0,4.378-10.61A.929.929,0,0,0,312.832,262Z" transform="translate(-307.795 -262)" fill="#fff"/></g><g transform="translate(25.552 36.63)"><path d="M276.705,394.609a.929.929,0,0,0-1.266-.353l-.021.012a.929.929,0,1,0,.913,1.619l.021-.012A.929.929,0,0,0,276.705,394.609Z" transform="translate(-274.945 -394.136)" fill="#fff"/></g></svg>