<svg id="car" xmlns="http://www.w3.org/2000/svg" width="50.631" height="20.254" viewBox="0 0 50.631 20.254">
  <path id="Caminho_70" data-name="Caminho 70" d="M240,86.891h3.375v1.688H240Zm0,0" transform="translate(-218.904 -79.296)" fill="#0b3b51"/>
  <path id="Caminho_71" data-name="Caminho 71" d="M49.907,5.563l-5.732-.819a28.93,28.93,0,0,0-3.248-1.721A28.417,28.417,0,0,0,29.17.492h-1a28.684,28.684,0,0,0-13.7,3.493L11.585,5.563A19.939,19.939,0,0,0,1.936,8.179,3.852,3.852,0,0,0,0,11.514v5.011a.844.844,0,0,0,.844.844H3.677a5.044,5.044,0,0,0,9.521,0H35.744a5.044,5.044,0,0,0,9.521,0h.3a.848.848,0,0,0,.314-.06l2.733-1.1a3.191,3.191,0,0,0,2.016-2.978V6.4A.844.844,0,0,0,49.907,5.563ZM11.745,16.356a3.376,3.376,0,1,1,.068-.675A3.375,3.375,0,0,1,11.745,16.356ZM27,15.681H13.5a5.063,5.063,0,1,0-10.126,0H1.688V11.514A2.159,2.159,0,0,1,2.774,9.644a18.245,18.245,0,0,1,9.04-2.4H27ZM27,5.555H15.123l.163-.089A26.982,26.982,0,0,1,27,2.217ZM28.691,2.18h.478a26.707,26.707,0,0,1,9.929,1.9L37.624,5.555H28.691ZM43.812,16.356a3.376,3.376,0,1,1,.068-.675A3.375,3.375,0,0,1,43.812,16.356Zm5.132-8.27H46.412V9.775h2.532v3.46a1.51,1.51,0,0,1-.955,1.41l-2.42.972c0-.078-.01-.155-.015-.232s-.007-.169-.015-.253-.025-.169-.039-.253-.024-.169-.041-.246-.041-.162-.063-.242-.039-.161-.064-.24-.056-.153-.084-.23-.055-.156-.084-.232-.069-.145-.1-.217-.07-.15-.11-.223-.084-.134-.123-.2-.084-.145-.132-.214-.093-.124-.139-.186-.1-.136-.153-.2-.1-.116-.157-.169-.111-.125-.169-.184-.116-.106-.174-.158-.121-.114-.185-.169-.129-.1-.193-.145-.128-.1-.2-.145-.144-.084-.216-.132-.132-.084-.2-.121-.153-.075-.231-.112-.138-.07-.21-.1-.169-.062-.253-.093-.139-.054-.211-.077c-.1-.03-.195-.051-.293-.075-.064-.015-.126-.035-.191-.049-.1-.021-.21-.033-.316-.048-.062-.008-.122-.022-.185-.028a5.129,5.129,0,0,0-.515-.026,5.068,5.068,0,0,0-5.063,5.063H28.691V7.243h9.282A.842.842,0,0,0,38.57,7l2.188-2.188A27.059,27.059,0,0,1,43.433,6.27a.847.847,0,0,0,.327.12l5.183.74Zm0,0" transform="translate(0 -0.492)" fill="#0b3b51"/>
</svg>
