<svg id="car" xmlns="http://www.w3.org/2000/svg" width="43.612" height="17.446" viewBox="0 0 43.612 17.446">
  <path id="Caminho_70" data-name="Caminho 70" d="M240,86.891h2.907v1.454H240Zm0,0" transform="translate(-221.828 -80.349)" fill="#fff"/>
  <path id="Caminho_71" data-name="Caminho 71" d="M42.988,4.86l-4.937-.705a24.919,24.919,0,0,0-2.8-1.483A24.478,24.478,0,0,0,25.126.492h-.858A24.707,24.707,0,0,0,12.471,3.5L9.979,4.86A17.175,17.175,0,0,0,1.667,7.113,3.318,3.318,0,0,0,0,9.986V14.3a.727.727,0,0,0,.727.727H3.168a4.345,4.345,0,0,0,8.2,0h19.42a4.345,4.345,0,0,0,8.2,0h.261a.73.73,0,0,0,.27-.052l2.354-.945a2.749,2.749,0,0,0,1.737-2.565V5.58A.727.727,0,0,0,42.988,4.86Zm-32.871,9.3a2.908,2.908,0,1,1,.059-.581A2.907,2.907,0,0,1,10.117,14.157Zm13.142-.581H11.63a4.361,4.361,0,1,0-8.722,0H1.454V9.986a1.859,1.859,0,0,1,.935-1.611,15.715,15.715,0,0,1,7.787-2.068H23.259Zm0-8.722H13.027l.14-.077a23.241,23.241,0,0,1,10.093-2.8Zm1.454-2.908h.411a23,23,0,0,1,8.553,1.639L32.408,4.853H24.713ZM37.738,14.157a2.908,2.908,0,1,1,.059-.581A2.907,2.907,0,0,1,37.738,14.157Zm4.42-7.123H39.977V8.488h2.181v2.98a1.3,1.3,0,0,1-.823,1.214l-2.085.837c0-.067-.009-.133-.013-.2s-.006-.145-.013-.218-.022-.146-.033-.218-.02-.146-.035-.211-.036-.14-.055-.209-.033-.139-.055-.206-.048-.132-.072-.2-.047-.134-.073-.2-.06-.125-.09-.187-.06-.129-.094-.192-.073-.116-.106-.174-.072-.124-.114-.184-.08-.107-.12-.161-.085-.117-.132-.173-.09-.1-.135-.145-.1-.107-.145-.158-.1-.091-.15-.136-.1-.1-.159-.146-.111-.083-.166-.125-.111-.086-.169-.124-.124-.072-.186-.113-.114-.073-.172-.1-.132-.064-.2-.1-.119-.06-.181-.086-.146-.054-.218-.08-.12-.047-.182-.066c-.083-.025-.168-.044-.252-.065-.055-.013-.108-.03-.164-.042-.089-.018-.181-.028-.272-.042-.054-.007-.105-.019-.159-.024a4.418,4.418,0,0,0-.443-.022,4.365,4.365,0,0,0-4.361,4.361H24.713V6.307h8a.726.726,0,0,0,.514-.213l1.885-1.885a23.308,23.308,0,0,1,2.3,1.261.729.729,0,0,0,.282.1l4.465.637Zm0,0" transform="translate(0 -0.492)" fill="#fff"/>
</svg>
