<svg height="496pt" viewBox="0 0 496 496" width="496pt" xmlns="http://www.w3.org/2000/svg" xmlns:xlink="http://www.w3.org/1999/xlink"><linearGradient id="a" gradientUnits="userSpaceOnUse" x1="248" x2="248" y1="496" y2="0"><stop offset="0" stop-color="#fff"/><stop offset="1" stop-color="#fff"/></linearGradient><path d="m232 252.054688 76.558594-164.054688h-33.949219l16-56h-72.976563l-27.6875 120h42.054688zm-21.945312-116.054688 20.3125-88h39.023437l-16 56h30.050781l-35.441406 75.945312v-43.945312zm-186.054688 360h16c13.230469 0 24-10.769531 24-24v-8h368v8c0 13.230469 10.769531 24 24 24h16c13.230469 0 24-10.769531 24-24v-256c0-13.230469-10.769531-24-24-24h-16c-10.414062 0-19.214844 6.710938-22.527344 16h-70.304687c13.121093-20.910156 20.832031-45.542969 20.832031-72 0-74.992188-61.007812-136-136-136s-136 61.007812-136 136c0 26.457031 7.710938 51.089844 20.832031 72h-70.304687c-3.3125-9.289062-12.113282-16-22.527344-16h-16c-13.230469 0-24 10.769531-24 24v256c0 13.230469 10.769531 24 24 24zm40-48v-32h368v32zm368-128v32h-368v-32zm-368-16v-32h368v32zm368 64v32h-368v-32zm16-152c0-4.40625 3.585938-8 8-8h16c4.414062 0 8 3.59375 8 8v256c0 4.414062-3.585938 8-8 8h-16c-4.414062 0-8-3.585938-8-8zm-16 8v32h-120.136719c15.375-8.214844 28.984375-19.304688 40.136719-32.542969v.542969zm-184-208c66.167969 0 120 53.832031 120 120s-53.832031 120-120 120-120-53.832031-120-120 53.832031-120 120-120zm-63.863281 240h-120.136719v-32h80.496094c11.0625 12.992188 24.480468 23.894531 39.640625 32zm-168.136719-40c0-4.40625 3.585938-8 8-8h16c4.414062 0 8 3.59375 8 8v256c0 4.414062-3.585938 8-8 8h-16c-4.414062 0-8-3.585938-8-8zm0 0" fill="url(#a)"/></svg>