<?xml version="1.0" encoding="utf-8"?>
<!-- Generator: Adobe Illustrator 23.0.3, SVG Export Plug-In . SVG Version: 6.00 Build 0)  -->
<svg version="1.1" id="Layer_1" xmlns="http://www.w3.org/2000/svg" xmlns:xlink="http://www.w3.org/1999/xlink" x="0px" y="0px"
	 viewBox="0 0 106.6 106.6" style="enable-background:new 0 0 106.6 106.6;" xml:space="preserve">
<style type="text/css">
	.cost{fill:#fff;}
</style>
<g>
	<path class="cost" d="M32.6,16.2c-1.7,0.1-3.6,0.2-3.7,2.5c-0.1,1.8,1.2,2.4,3.4,2.3c2.4,0,4.1-1,3.8-2.6
		C35.8,16.3,34.3,16,32.6,16.2z"/>
	<path class="cost" d="M22.9,20.2c-3.6,3.2-5.7,7.2-5.7,12.7c-0.2,3.4,1,6.8,3.4,10c0.9,1.3,2.2,2.2,3.7,1.1
		c1.5-1.1,1.1-2.4,0.2-3.8c-4.1-6.6-3.6-11.1,1.7-16.6c1.1-1.1,2.1-2.2,0.9-3.7C25.6,18.2,24.1,19.1,22.9,20.2z"/>
	<path class="cost" d="M98.7,35.3c0.1-22.4-21.4-34.7-39-24.9c-4.1,2.3-8.6,2.2-12.8,0c-7.6-4-15.4-4.7-23.3-1.3
		c-15.8,6.7-20.8,26.3-10,39.8c4.5,5.7,6.3,11.8,5.4,19C17.7,79.3,21.6,89,30,96.9c2.5,2.4,5.3,3.5,8.7,2.1c3.3-1.4,4.7-4,4.7-7.5
		c0.1-6.2,0.6-12.4,2.5-18.4c1-3.3,2.2-6.5,4.6-9.1c1.9-2.1,3.8-2,5.6,0c1.8,2,3,4.5,3.9,7c2.3,6.6,3.1,13.5,3.1,20.5
		c0,3.5,1.5,6.1,4.8,7.5c3.2,1.3,6,0.3,8.4-1.9c8.3-7.7,12.4-17.3,11.2-28.5c-0.8-7.6,0.9-13.9,5.7-19.7
		C96.8,44.3,98.6,38.9,98.7,35.3z M82.8,70.2c0.9,9.1-2.8,16.9-9.5,23.3c-1.1,1.1-2.3,1.8-3.9,1.2c-1.7-0.7-1.6-2.2-1.7-3.7
		c-0.3-8.1-1.1-16.1-4.4-23.6c-2-4.5-4.1-9.3-10.1-9.3c-6.1-0.1-8.3,4.8-10.3,9.5c-3.2,7.3-4,15.1-4.3,22.9
		c-0.1,1.7,0.3,3.6-1.8,4.3c-2,0.8-3.2-0.7-4.4-1.9c-6-5.8-8.8-13-9.1-21.5c0.4-4.3,1.1-8.8,0-13.3c-1-4.1-2.7-7.8-5.4-11.1
		c-7.2-8.8-7.2-20.1-0.1-28.1c7.3-8.1,18.8-9.5,28.2-3.3c1.4,0.9,2.7,1,4.4,1.1c5.6,0.3,10.4-1.5,15.4-3.7
		c8.6-3.7,18.6-0.1,24.1,7.5c5.5,7.6,5.8,17.5-0.2,24.9C83.8,52.7,81.9,60.8,82.8,70.2z"/>
</g>
</svg>
