<?xml version="1.0" encoding="UTF-8" standalone="no"?> <svg id="Layer_1" data-name="Layer 1" xmlns="http://www.w3.org/2000/svg" viewBox="0 0 128 128"><defs><style>.cls-1{fill:#fff;}</style></defs><title>v</title><path class="cls-1" d="M100.53764,23.04025l-.21324-.14216a3.75963,3.75963,0,0,0-5.09779.911.13428.13428,0,0,0-.02587.03876c-2.19029,2.95916-6.33837,7.9407-11.79155,10.85467A19.48649,19.48649,0,0,1,77.465,36.78949a7.14861,7.14861,0,0,0-4.148,1.33747,15.93417,15.93417,0,0,1-9.25233,2.94626h-.1292A15.93417,15.93417,0,0,1,54.68307,38.127a7.14861,7.14861,0,0,0-4.148-1.33747,19.48664,19.48664,0,0,1-5.94424-2.08693c-5.45318-2.914-9.60126-7.89552-11.79155-10.85467a.13428.13428,0,0,0-.02587-.03876,3.75962,3.75962,0,0,0-5.09779-.911l-.21324.14216a3.75576,3.75576,0,0,0-1.30515,4.78768c.56859,1.15651,1.30515,2.52628,2.1645,4.0059a24.96213,24.96213,0,0,0,3.9865,4.74244c3.42439,3.48254,7.10723,6.70018,10.78361,9.91138a47.33132,47.33132,0,0,1,3.86375,3.41145c2.77826,2.82354.98857,21.26356.911,24.15813,5.35625.56859,12.02413,1.09841,16.08169.73012a.21005.21005,0,0,0,.10341,0c4.05756.36829,10.72544-.16153,16.08169-.73012-.07753-2.89457-1.86723-21.33459.91105-24.15813a47.32854,47.32854,0,0,1,3.86373-3.41145c3.67638-3.2112,7.35923-6.42884,10.78361-9.91138a24.961,24.961,0,0,0,3.9865-4.74244c.85935-1.47962,1.59593-2.84939,2.1645-4.0059A3.75576,3.75576,0,0,0,100.53764,23.04025Z"/><path class="cls-1" d="M63.94226,31.83383h.11626a14.2274,14.2274,0,0,0,0-28.45476h-.11626a14.2274,14.2274,0,0,0,0,28.45476Z"/><path class="cls-1" d="M95.32062,93.76336l-.46725-.414L83.741,83.51615,80.43555,80.59c-.01157-.00925-.0347-.03008-.0532-.04626A18.38235,18.38235,0,0,0,78.319,81.79748c-3.33786,2.33626-7.46555,7.38864-8.76784,11.06885.02081.01619.04163.0347.06245.0532l12.50357,7.69305-6.87467,17.4411a4.80657,4.80657,0,0,0,4.30476,6.56471c.037,0,.074.00231.111.00231a4.80724,4.80724,0,0,0,2.03327-.43026c.06245-.02775.12491-.05783.185-.08788.04857-.02314.09715-.04858.14573-.074a4.81035,4.81035,0,0,0,1.78342-1.70249l.8096-1.31848L96.49571,101.635A6.192,6.192,0,0,0,95.32062,93.76336Z"/><path class="cls-1" d="M49.96476,81.79748a18.38512,18.38512,0,0,0-2.06332-1.25372c-.01851.01617-.04164.037-.0532.04626l-3.3055,2.92613L33.43041,93.34932l-.46725.414a6.192,6.192,0,0,0-1.17509,7.87163l11.88032,19.37257.8096,1.31848a4.81035,4.81035,0,0,0,1.78342,1.70249c.04858.02544.09716.05087.14573.074.06015.03005.1226.06014.185.08788a4.80724,4.80724,0,0,0,2.03327.43026c.037,0,.074-.00231.111-.00231a4.80656,4.80656,0,0,0,4.30476-6.56471l-6.87467-17.4411,12.50358-7.69305c.02081-.0185.04163-.037.06245-.0532C57.4303,89.18612,53.30263,84.13374,49.96476,81.79748Z"/></svg>