<svg xmlns="http://www.w3.org/2000/svg" width="40.148" height="31.863" viewBox="0 0 40.148 31.863">
  <g id="envelope" transform="translate(0 0)">
    <g id="Grupo_8988" data-name="Grupo 8988" transform="translate(0 0)">
      <path id="Caminho_8267" data-name="Caminho 8267" d="M3.853,64.641q.762.543,4.593,3.225T14.316,72q.224.159.952.69t1.21.86q.482.328,1.165.735a6.729,6.729,0,0,0,1.288.61,3.518,3.518,0,0,0,1.12.2H20.1a3.521,3.521,0,0,0,1.12-.2,6.735,6.735,0,0,0,1.288-.61q.683-.408,1.165-.735t1.21-.86q.728-.532.952-.69,2.061-1.448,10.485-7.355a10.7,10.7,0,0,0,2.733-2.783,6.017,6.017,0,0,0,1.1-3.417,3.486,3.486,0,0,0-1.064-2.557,3.446,3.446,0,0,0-2.52-1.064H3.584A3.186,3.186,0,0,0,.93,56,4.6,4.6,0,0,0,0,58.938a5.316,5.316,0,0,0,1.232,3.089A11.174,11.174,0,0,0,3.853,64.641Z" transform="translate(0 -54.82)" fill="#fff"/>
      <path id="Caminho_8268" data-name="Caminho 8268" d="M37.907,186.406q-7.348,5.023-11.157,7.807-1.277.95-2.072,1.482a12.741,12.741,0,0,1-2.117,1.086,6.393,6.393,0,0,1-2.464.554h-.045a6.4,6.4,0,0,1-2.464-.554A12.748,12.748,0,0,1,15.47,195.7q-.8-.531-2.072-1.482-3.025-2.24-11.135-7.807A11.9,11.9,0,0,1,0,184.437V202.4a3.5,3.5,0,0,0,1.053,2.557,3.434,3.434,0,0,0,2.532,1.064H36.563a3.434,3.434,0,0,0,2.532-1.064,3.5,3.5,0,0,0,1.053-2.557V184.437A12.393,12.393,0,0,1,37.907,186.406Z" transform="translate(0 -174.163)" fill="#fff"/>
    </g>
  </g>
</svg>
