<svg xmlns="http://www.w3.org/2000/svg" width="42.675" height="42.676" viewBox="0 0 42.675 42.676"><path d="M40.643,2.032a6.962,6.962,0,0,0-9.832,0L2.956,29.887c-.013.013-.021.029-.032.043s-.03.039-.045.059a.751.751,0,0,0-.1.185c-.007.02-.017.038-.022.058s-.007.015-.009.023L.02,41.725A.766.766,0,0,0,0,41.881c0,.01,0,.019,0,.029a.768.768,0,0,0,.05.256c.007.019.015.036.023.055a.771.771,0,0,0,.151.229.777.777,0,0,0,.253.168.767.767,0,0,0,.293.058.776.776,0,0,0,.178-.021l11.47-2.73a.557.557,0,0,0,.059-.023.714.714,0,0,0,.076-.03.761.761,0,0,0,.155-.1c.019-.015.038-.025.056-.042s.014-.009.02-.015L40.642,11.864A6.96,6.96,0,0,0,40.643,2.032ZM39.55,3.124a5.412,5.412,0,0,1,.5,7.057l-7.56-7.56A5.412,5.412,0,0,1,39.55,3.124Zm-3.823,11.47L28.08,6.948l1.092-1.092L36.819,13.5ZM3.832,38.843a.772.772,0,0,0-1.092,0l-.585.585,1.973-8.286,3.416-.379L7.1,34.718a.772.772,0,0,0,.008.085.789.789,0,0,0-.008.085c0,.025.016.046.022.071a.785.785,0,0,0,.039.127.752.752,0,0,0,.073.14.732.732,0,0,0,.077.1.774.774,0,0,0,.121.1.784.784,0,0,0,.107.065.8.8,0,0,0,.16.051.807.807,0,0,0,.083.027.757.757,0,0,0,.084,0h0a.768.768,0,0,0,.084,0l3.956-.439-.379,3.416L3.247,40.52l.585-.585A.773.773,0,0,0,3.832,38.843Zm9.694-4.232L30.811,17.325a.772.772,0,0,0-1.092-1.092L12.433,33.519l-3.687.409.409-3.687L26.443,12.956a.772.772,0,1,0-1.092-1.092L8.064,29.149l-2.459.273L26.988,8.04l7.647,7.647L13.252,37.069Zm24.386-22.2L30.264,4.763,31.357,3.67,39,11.317Z" fill="#fff"/></svg>