<?xml version="1.0" encoding="UTF-8" standalone="no"?> <svg width="512" height="512" viewBox="0 0 512 512" fill="#fff" xmlns="http://www.w3.org/2000/svg">
<path fill-rule="evenodd" clip-rule="evenodd" d="M76 256C76 156.589 156.589 76 256 76C355.411 76 436 156.589 436 256C436 355.411 355.411 436 256 436C156.589 436 76 355.411 76 256ZM256 36C134.497 36 36 134.497 36 256C36 377.503 134.497 476 256 476C377.503 476 476 377.503 476 256C476 134.497 377.503 36 256 36ZM212 144C200.954 144 192 152.954 192 164V356C192 367.046 200.954 376 212 376C223.046 376 232 367.046 232 356V284.174H281.913C320.621 284.174 352 252.795 352 214.087C352 175.379 320.621 144 281.913 144H212ZM281.913 244.174H232V184H281.913C298.53 184 312 197.47 312 214.087C312 230.704 298.53 244.174 281.913 244.174Z" fill="#fff"/>
</svg>
