<svg xmlns="http://www.w3.org/2000/svg" width="40.533" height="40.533" viewBox="0 0 40.533 40.533"><g transform="translate(0 0)"><path d="M35.1,20.543l2.3-2.3A10.686,10.686,0,1,0,22.288,3.132L3.132,22.288A10.686,10.686,0,0,0,18.245,37.4l2.3-2.3A10.684,10.684,0,1,0,35.1,20.543Zm-15.943,9.3a10.663,10.663,0,0,0,.4,2.888l-2.989,2.989A8.311,8.311,0,1,1,4.812,23.967L13.477,15.3l7.957,7.957A10.633,10.633,0,0,0,19.158,29.844Zm9.5,8.226a8.312,8.312,0,0,1,0-16.453ZM23.1,21.563l-7.941-7.941,8.811-8.811A8.311,8.311,0,0,1,35.722,16.565l-2.989,2.989A10.676,10.676,0,0,0,23.1,21.563ZM31.032,38.07V21.618a8.312,8.312,0,0,1,0,16.453Z" transform="translate(0 0.001)" fill="#fff"/></g></svg>