<svg id="home" xmlns="http://www.w3.org/2000/svg" width="35.79" height="31.904" viewBox="0 0 35.79 31.904">
  <g id="Grupo_8877" data-name="Grupo 8877" transform="translate(0 0)">
    <g id="Grupo_8876" data-name="Grupo 8876">
      <path id="Caminho_79" data-name="Caminho 79" d="M35.409,40.4,18.444,27.977a.93.93,0,0,0-1.1,0L.38,40.4a.93.93,0,0,0,1.1,1.5L17.895,29.88,34.31,41.9a.93.93,0,0,0,1.1-1.5Z" transform="translate(0.001 -27.798)" fill="#0b3b51"/>
    </g>
  </g>
  <g id="Grupo_8879" data-name="Grupo 8879" transform="translate(3.946 14.312)">
    <g id="Grupo_8878" data-name="Grupo 8878">
      <path id="Caminho_80" data-name="Caminho 80" d="M83.42,232.543a.93.93,0,0,0-.93.93v14.8H75.051v-8.08a4.65,4.65,0,0,0-9.3,0v8.08H58.312v-14.8a.93.93,0,0,0-1.86,0V249.2a.93.93,0,0,0,.93.93h9.3a.929.929,0,0,0,.926-.857.7.7,0,0,0,0-.072V240.2a2.79,2.79,0,1,1,5.58,0v9.01a.683.683,0,0,0,0,.072.929.929,0,0,0,.926.858h9.3a.93.93,0,0,0,.93-.93V233.473A.93.93,0,0,0,83.42,232.543Z" transform="translate(-56.452 -232.543)" fill="#0b3b51"/>
    </g>
  </g>
</svg>
