<svg id="home" xmlns="http://www.w3.org/2000/svg" width="30.811" height="27.466" viewBox="0 0 30.811 27.466">
  <g id="Grupo_8637" data-name="Grupo 8637" transform="translate(0)">
    <g id="Grupo_8636" data-name="Grupo 8636">
      <path id="Caminho_57" data-name="Caminho 57" d="M30.483,38.646l-14.6-10.693a.8.8,0,0,0-.946,0L.327,38.646a.8.8,0,1,0,.946,1.292L15.4,29.59,29.537,39.937a.8.8,0,0,0,.946-1.292Z" transform="translate(0.001 -27.798)" fill="#fff"/>
    </g>
  </g>
  <g id="Grupo_8639" data-name="Grupo 8639" transform="translate(3.397 12.321)">
    <g id="Grupo_8638" data-name="Grupo 8638">
      <path id="Caminho_58" data-name="Caminho 58" d="M79.668,232.543a.8.8,0,0,0-.8.8v12.743h-6.4V239.13a4,4,0,0,0-8.006,0v6.956h-6.4V233.344a.8.8,0,1,0-1.6,0v13.543a.8.8,0,0,0,.8.8h8.005a.8.8,0,0,0,.8-.738.6.6,0,0,0,0-.062V239.13a2.4,2.4,0,0,1,4.8,0v7.756a.587.587,0,0,0,0,.062.8.8,0,0,0,.8.739h8.005a.8.8,0,0,0,.8-.8V233.344A.8.8,0,0,0,79.668,232.543Z" transform="translate(-56.452 -232.543)" fill="#fff"/>
    </g>
  </g>
</svg>
