<svg xmlns="http://www.w3.org/2000/svg" width="47.583" height="41.976" viewBox="0 0 47.583 41.976"><g transform="translate(38.522 4.802)"><path d="M415.429,81.836a.929.929,0,1,0,.929.929A.93.93,0,0,0,415.429,81.836Z" transform="translate(-414.5 -81.836)" fill="#fff"/></g><g transform="translate(0 0)"><path d="M44.28,34.031a11.441,11.441,0,0,0-8.662-3.866A13.444,13.444,0,0,0,25.9,34.294a16.469,16.469,0,0,0-2.107,2.622,16.482,16.482,0,0,0-2.107-2.622,13.443,13.443,0,0,0-9.719-4.129C4.916,30.165,0,36.063,0,43.075c0,9.472,10.037,17.447,23.183,28.84a.929.929,0,0,0,1.217,0c13.177-11.42,23.183-19.381,23.183-28.84A13.537,13.537,0,0,0,44.28,34.031ZM23.792,69.983C11.378,59.241,1.859,51.526,1.859,43.075c0-6.3,4.345-11.051,10.107-11.051a11.466,11.466,0,0,1,8.352,3.532,13.856,13.856,0,0,1,2.626,3.626.929.929,0,0,0,.847.548h0a.931.931,0,0,0,.848-.548,13.858,13.858,0,0,1,2.626-3.626,11.466,11.466,0,0,1,8.352-3.532c5.762,0,10.107,4.751,10.107,11.051C45.725,51.716,35.577,59.784,23.792,69.983Z" transform="translate(0 -30.165)" fill="#fff"/></g><g transform="translate(37.781 7.615)"><path d="M411.45,112.6a.929.929,0,1,0-1.646.863,8.616,8.616,0,0,1,.951,3.934c0,2.685-1.278,5.536-4.022,8.97a.929.929,0,0,0,1.452,1.16c3.022-3.781,4.429-7,4.429-10.13A10.362,10.362,0,0,0,411.45,112.6Z" transform="translate(-406.53 -112.103)" fill="#fff"/></g><g transform="translate(13.94 11.679)"><path d="M168.773,161.97h-5.2v-5.2a.929.929,0,0,0-.929-.929h-5.576a.929.929,0,0,0-.929.929v5.2h-5.2a.929.929,0,0,0-.929.929v5.576a.929.929,0,0,0,.929.929h5.2v5.2a.929.929,0,0,0,.929.929h5.576a.929.929,0,0,0,.929-.929v-5.2h5.2a.929.929,0,0,0,.929-.929V162.9A.929.929,0,0,0,168.773,161.97Zm-.929,5.576h-5.2a.929.929,0,0,0-.929.929v5.2h-3.717v-5.2a.929.929,0,0,0-.929-.929h-5.2v-3.717h5.2a.929.929,0,0,0,.929-.929v-5.2h3.717v5.2a.929.929,0,0,0,.929.929h5.2Z" transform="translate(-150 -155.836)" fill="#fff"/></g></svg>