<svg id="Componente_45_1" data-name="Componente 45 – 1" xmlns="http://www.w3.org/2000/svg" xmlns:xlink="http://www.w3.org/1999/xlink" width="131.146" height="90.705" viewBox="0 0 131.146 90.705">
  <defs>
    <linearGradient id="linear-gradient" x1="0.5" y1="-0.073" x2="0.5" y2="1" gradientUnits="objectBoundingBox">
      <stop offset="0" stop-color="#535353"/>
      <stop offset="0.017" stop-color="#535353"/>
      <stop offset="0.243" stop-color="#b5b5b5"/>
      <stop offset="0.452" stop-color="#909090"/>
      <stop offset="1" stop-color="#323232"/>
    </linearGradient>
    <linearGradient id="linear-gradient-2" x1="0.5" x2="0.5" y2="1" gradientUnits="objectBoundingBox">
      <stop offset="0" stop-color="red"/>
      <stop offset="0.552" stop-color="#f10808"/>
      <stop offset="1" stop-color="#ae0303"/>
    </linearGradient>
  </defs>
  <path id="Caminho_39079" data-name="Caminho 39079" d="M448.563,1308.745a6.65,6.65,0,0,1-3.512,5.864c-2.163,1.158-4.216.847-6.827-.329l-45.893-19.967a24.925,24.925,0,0,0-18.682,0l-45.892,19.967c-3.12,1.278-4.665,1.487-6.827.329a6.649,6.649,0,0,1-3.512-5.864v-84.051H448.563Z" transform="translate(-317.417 -1224.694)" fill="url(#linear-gradient)"/>
  <path id="Caminho_39081" data-name="Caminho 39081" d="M448.563,1308.745a6.65,6.65,0,0,1-3.512,5.864c-2.163,1.158-4.436.8-6.827-.329l-45.893-19.967a23.879,23.879,0,0,0-18.682,0l-45.892,19.967c-3.11,1.37-4.665,1.487-6.827.329a6.649,6.649,0,0,1-3.512-5.864v-84.051H448.563Z" transform="translate(-317.417 -1224.694)" fill="url(#linear-gradient-2)" style="mix-blend-mode: hard-light;isolation: isolate"/>
  <text id="Lançamento" transform="translate(64.241 41.058)" fill="#fff" font-size="21" font-family="SegoeUI, Segoe UI"><tspan x="-56.607" y="0">Lançamento</tspan></text>
</svg>
