<?xml version="1.0" encoding="iso-8859-1"?>
<!-- Generator: Adobe Illustrator 21.0.0, SVG Export Plug-In . SVG Version: 6.00 Build 0)  -->
<svg version="1.1" id="public-train-tube-travel-subway"
	 xmlns="http://www.w3.org/2000/svg" xmlns:xlink="http://www.w3.org/1999/xlink" x="0px" y="0px" viewBox="0 0 64 64"
	 style="enable-background:new 0 0 64 64;" xml:space="preserve">
<path d="M46.661,47H48c0.552,0,1-0.447,1-1V14c0-3.859-3.14-7-7-7h-4V2h6V0H20v2h6v5h-4c-3.86,0-7,3.141-7,7v32c0,0.553,0.448,1,1,1
	h1.339L9.116,62.532c-0.164,0.31-0.154,0.684,0.027,0.983C9.324,63.816,9.649,64,10,64h44c0.351,0,0.676-0.184,0.857-0.484
	c0.181-0.3,0.191-0.674,0.027-0.983L46.661,47z M47.574,53H16.426l1.059-2h29.031L47.574,53z M48.633,55l1.059,2H14.308l1.059-2
	H48.633z M28,7V2h8v5H28z M17,14c0-2.757,2.243-5,5-5h20c2.757,0,5,2.243,5,5v31h-2H19h-2V14z M44.398,47l1.059,2H18.543l1.059-2
	H44.398z M11.661,62l1.588-3h37.501l1.588,3H11.661z"/>
<path d="M24,35c-2.206,0-4,1.794-4,4s1.794,4,4,4s4-1.794,4-4S26.206,35,24,35z M24,41c-1.103,0-2-0.897-2-2s0.897-2,2-2
	s2,0.897,2,2S25.103,41,24,41z"/>
<path d="M40,35c-2.206,0-4,1.794-4,4s1.794,4,4,4s4-1.794,4-4S42.206,35,40,35z M40,41c-1.103,0-2-0.897-2-2s0.897-2,2-2
	s2,0.897,2,2S41.103,41,40,41z"/>
<path d="M20,29h24c0.552,0,1-0.447,1-1v-5v-8c0-2.206-1.794-4-4-4H23c-2.206,0-4,1.794-4,4v8v5C19,28.553,19.448,29,20,29z M43,27
	H21v-3h22V27z M23,13h18c1.103,0,2,0.897,2,2v7H21v-7C21,13.897,21.897,13,23,13z"/>
<rect y="12" width="2" height="2"/>
<rect x="4" y="12" width="2" height="2"/>
<rect y="8" width="2" height="2"/>
<rect x="4" y="8" width="2" height="2"/>
<rect x="8" y="8" width="2" height="2"/>
<rect y="4" width="2" height="2"/>
<rect x="4" y="4" width="2" height="2"/>
<rect x="8" y="4" width="2" height="2"/>
<rect width="2" height="2"/>
<rect x="4" width="2" height="2"/>
<rect x="8" width="2" height="2"/>
<rect x="12" y="4" width="2" height="2"/>
<rect x="16" y="4" width="2" height="2"/>
<rect x="12" width="2" height="2"/>
<rect x="16" width="2" height="2"/>
<rect x="62" y="12" width="2" height="2"/>
<rect x="58" y="12" width="2" height="2"/>
<rect x="62" y="8" width="2" height="2"/>
<rect x="58" y="8" width="2" height="2"/>
<rect x="54" y="8" width="2" height="2"/>
<rect x="62" y="4" width="2" height="2"/>
<rect x="58" y="4" width="2" height="2"/>
<rect x="54" y="4" width="2" height="2"/>
<rect x="62" width="2" height="2"/>
<rect x="58" width="2" height="2"/>
<rect x="54" width="2" height="2"/>
<rect x="50" y="4" width="2" height="2"/>
<rect x="46" y="4" width="2" height="2"/>
<rect x="50" width="2" height="2"/>
<rect x="46" width="2" height="2"/>
</svg>
