<svg id="money-bag" xmlns="http://www.w3.org/2000/svg" width="37.797" height="44" viewBox="0 0 37.797 44">
  <g id="Grupo_8875" data-name="Grupo 8875">
    <path id="Caminho_77" data-name="Caminho 77" d="M193.467,221.132h-2.516a1.656,1.656,0,1,1,0-3.311h4.427a1.1,1.1,0,0,0,0-2.2H193.3V214.1a1.1,1.1,0,1,0-2.2,0v1.528h-.156a3.851,3.851,0,1,0,0,7.7h2.516a1.656,1.656,0,0,1,0,3.311h-4.51a1.1,1.1,0,1,0,0,2.2h2.159V230.4a1.1,1.1,0,0,0,2.2,0v-1.564h.21a3.851,3.851,0,0,0-.055-7.7Z" transform="translate(-173.086 -193.516)" fill="#ffb200"/>
    <path id="Caminho_78" data-name="Caminho 78" d="M69.52,25.128A31.465,31.465,0,0,0,64.764,17.5a35.438,35.438,0,0,0-6.092-5.79l4.665-8.654a1.083,1.083,0,0,0-.2-1.3A5.468,5.468,0,0,0,59.22,0a9.207,9.207,0,0,0-3.549.933,6.717,6.717,0,0,1-2.232.668,1.39,1.39,0,0,1-.521-.091A16.256,16.256,0,0,0,47.447.22,7.415,7.415,0,0,0,41.941,2.8a1.1,1.1,0,0,0-.128,1.372l5.031,7.6a36.031,36.031,0,0,0-6.01,5.726,31.749,31.749,0,0,0-4.757,7.629A25.941,25.941,0,0,0,33.9,35.483,8.53,8.53,0,0,0,42.416,44H63.181A8.53,8.53,0,0,0,71.7,35.483,25.941,25.941,0,0,0,69.52,25.128ZM44.154,3.714A4.786,4.786,0,0,1,47.447,2.4a14.253,14.253,0,0,1,4.711,1.162,3.717,3.717,0,0,0,1.272.22A8.1,8.1,0,0,0,56.5,2.945a7.418,7.418,0,0,1,2.708-.768,2.9,2.9,0,0,1,1.765.6l-4.391,8.16H48.938ZM63.181,41.8H42.416A6.328,6.328,0,0,1,36.1,35.483c0-5.864,2.15-11.425,6.376-16.53a33.579,33.579,0,0,1,6.211-5.818H56.9a32.946,32.946,0,0,1,6.211,5.818c4.235,5.1,6.376,10.657,6.376,16.53A6.3,6.3,0,0,1,63.181,41.8Z" transform="translate(-33.9)" fill="#0b3b51"/>
  </g>
</svg>
