<?xml version="1.0" encoding="utf-8"?>
<!-- Generator: Adobe Illustrator 23.0.3, SVG Export Plug-In . SVG Version: 6.00 Build 0)  -->
<svg version="1.1" id="Icons" xmlns="http://www.w3.org/2000/svg" xmlns:xlink="http://www.w3.org/1999/xlink" x="0px" y="0px"
	 viewBox="0 0 32 32" style="enable-background:new 0 0 32 32;" xml:space="preserve">
<style type="text/css">
	.st0{fill:none;stroke:#fff;stroke-width:2;stroke-linecap:round;stroke-linejoin:round;stroke-miterlimit:10;}
	.st1{fill:none;stroke:#fff;stroke-width:2;stroke-linejoin:round;stroke-miterlimit:10;}
</style>
<path class="st0" d="M12,26H6v2c0,1.1,0.9,2,2,2h2c1.1,0,2-0.9,2-2V26z"/>
<path class="st0" d="M26,26h-6v2c0,1.1,0.9,2,2,2h2c1.1,0,2-0.9,2-2V26z"/>
<path class="st0" d="M25,26H7c-1.1,0-2-0.9-2-2V7c0-2.2,1.8-4,4-4h14c2.2,0,4,1.8,4,4v17C27,25.1,26.1,26,25,26z"/>
<path class="st0" d="M5,16L5,16c7.1,2.6,14.9,2.6,22,0l0,0"/>
<line class="st0" x1="8" y1="21" x2="12" y2="22"/>
<line class="st0" x1="24" y1="21" x2="20" y2="22"/>
<polyline class="st0" points="27,9 31,11 31,16 "/>
<polyline class="st0" points="5,9 1,11 1,16 "/>
</svg>
