<svg id="piggybank_1_" data-name="piggybank (1)" xmlns="http://www.w3.org/2000/svg" width="45.723" height="38.734" viewBox="0 0 45.723 38.734">
  <g id="Grupo_8868" data-name="Grupo 8868" transform="translate(22.522 27.958)">
    <g id="Grupo_8867" data-name="Grupo 8867">
      <path id="Caminho_73" data-name="Caminho 73" d="M252.923,352.2a.728.728,0,0,0-.728.728v1.553a.728.728,0,1,0,1.456,0v-1.553A.728.728,0,0,0,252.923,352.2Z" transform="translate(-252.195 -352.204)" fill="#0b3b51"/>
    </g>
  </g>
  <g id="Grupo_8870" data-name="Grupo 8870" transform="translate(0 0)">
    <g id="Grupo_8869" data-name="Grupo 8869">
      <path id="Caminho_74" data-name="Caminho 74" d="M45.282,56.658a1.494,1.494,0,0,0-1.064-.441H42.349c-.024,0-.04-.027-.045-.051A15.5,15.5,0,0,0,33,44.944a7.691,7.691,0,0,0-2.7-4.394,7.055,7.055,0,0,0-3.065-1.41.728.728,0,0,0-.831.721v3.932H23.763a5.387,5.387,0,0,0-10.385.143A15.485,15.485,0,0,0,0,59.276C0,67.92,4.488,74.954,5.864,76.9a2.28,2.28,0,0,0,1.862.962h3.1a2.284,2.284,0,0,0,2.281-2.281V74.577a15.646,15.646,0,0,0,2.378.183h7.038v.825A2.284,2.284,0,0,0,24.8,77.866h3.4a2.293,2.293,0,0,0,2.231-1.8l.374-1.744A15.494,15.494,0,0,0,41.338,65.44h2.881a1.506,1.506,0,0,0,1.5-1.5V57.723A1.5,1.5,0,0,0,45.282,56.658ZM18.59,41.365A3.929,3.929,0,0,1,22.179,46.9H15a3.929,3.929,0,0,1,3.589-5.533Zm25.677,22.57a.049.049,0,0,1-.049.049H41.885a15.411,15.411,0,0,0,.71-3.894.728.728,0,1,0-1.454-.075,14.038,14.038,0,0,1-9.987,12.7l1.017-4.747a.728.728,0,0,0-1.424-.305l-1.734,8.091a.829.829,0,0,1-.807.652H24.8a.826.826,0,0,1-.825-.825V72.478a.728.728,0,1,0-1.456,0V73.3H15.484a14.171,14.171,0,0,1-2.378-.2V67.819a.728.728,0,1,0-1.456,0v7.766a.826.826,0,0,1-.825.825h-3.1a.811.811,0,0,1-.672-.345c-1.313-1.861-5.6-8.573-5.6-16.789A14.03,14.03,0,0,1,13.2,45.433a5.4,5.4,0,0,0,.241,1.465h-.292a.728.728,0,1,0,0,1.456H24.026a.728.728,0,1,0,0-1.456h-.292a5.4,5.4,0,0,0,.244-1.6c0-.016,0-.032,0-.049H26.4v1.6a.728.728,0,1,0,1.456,0V40.816c1.381.523,3.98,2.129,3.98,6.81a.728.728,0,1,0,1.456,0c0-.308-.011-.634-.037-.971a14.045,14.045,0,0,1,7.617,9.8,1.514,1.514,0,0,0,1.472,1.217h1.869a.048.048,0,0,1,.048.048v6.213Z" transform="translate(0 -39.132)" fill="#0b3b51"/>
    </g>
  </g>
  <g id="Grupo_8872" data-name="Grupo 8872" transform="translate(31.912 15.532)">
    <g id="Grupo_8871" data-name="Grupo 8871">
      <path id="Caminho_75" data-name="Caminho 75" d="M363.348,215.088a3.2,3.2,0,0,0-5.953,0,.728.728,0,0,0,1.364.509,1.743,1.743,0,0,1,3.224,0,.728.728,0,0,0,1.364-.509Z" transform="translate(-357.349 -213.061)" fill="#0b3b51"/>
    </g>
  </g>
  <g id="Grupo_8874" data-name="Grupo 8874" transform="translate(13.979 13.591)">
    <g id="Grupo_8873" data-name="Grupo 8873">
      <path id="Caminho_76" data-name="Caminho 76" d="M161.874,197.317V193.6c1.428.174,2.427.835,2.427,1.436a.728.728,0,0,0,1.456,0c0-1.488-1.655-2.685-3.883-2.9v-.084a.728.728,0,0,0-1.456,0v.084c-2.228.216-3.883,1.413-3.883,2.9,0,2.126,2.1,2.893,3.883,3.395v3.721c-1.428-.174-2.427-.835-2.427-1.436a.728.728,0,1,0-1.456,0c0,1.488,1.655,2.685,3.883,2.9v.084a.728.728,0,0,0,1.456,0v-.084c2.228-.216,3.883-1.413,3.883-2.9C165.757,198.586,163.657,197.819,161.874,197.317Zm-1.456-.414c-1.793-.563-2.427-1.074-2.427-1.87,0-.6,1-1.263,2.427-1.436Zm1.456,5.245v-3.307c1.793.562,2.427,1.074,2.427,1.87C164.3,201.313,163.3,201.975,161.874,202.149Z" transform="translate(-156.535 -191.32)" fill="#ffb200"/>
    </g>
  </g>
</svg>
