<?xml version="1.0" encoding="utf-8"?>
<!-- Generator: Adobe Illustrator 23.0.3, SVG Export Plug-In . SVG Version: 6.00 Build 0)  -->
<svg version="1.1" id="Icons" xmlns="http://www.w3.org/2000/svg" xmlns:xlink="http://www.w3.org/1999/xlink" x="0px" y="0px"
	 viewBox="0 0 32 32" style="enable-background:new 0 0 32 32;" xml:space="preserve">
<style type="text/css">
	.st0{fill:none;stroke:#fff;stroke-width:1;stroke-linecap:round;stroke-linejoin:round;stroke-miterlimit:10;}
	.st1{fill:none;stroke:#fff;stroke-width:1;stroke-linejoin:round;stroke-miterlimit:10;}
</style>
<path class="st0" d="M24.1,13H7.9c-1.2,0-2.3-0.6-3-1.6L4,10l12-6l12,6l-0.9,1.4C26.4,12.4,25.3,13,24.1,13z"/>
<path class="st0" d="M8.8,17.8c-0.6-0.7-1.2-1-1.8-0.8c-0.9,0.4-1.2,2-0.7,3.6c0.5,1.6,1.7,2.7,2.6,2.3c0,0,0.1,0,0.1-0.1
	c0.8,3.5,3.6,6.1,7,6.1s6.3-2.6,7-6.1c0,0,0.1,0.1,0.1,0.1c0.9,0.4,2.1-0.7,2.6-2.3C26.3,19,26,17.4,25,17c-0.6-0.2-1.3,0.1-1.8,0.8
	"/>
<path class="st0" d="M21.8,18H10.2C8.5,18,7,16.5,7,14.8V13h18v1.8C25,16.5,23.5,18,21.8,18z"/>
</svg>
