<?xml version="1.0" encoding="utf-8"?>
<!-- Generator: Adobe Illustrator 24.3.0, SVG Export Plug-In . SVG Version: 6.00 Build 0)  -->
<svg version="1.1" id="Layer_1" xmlns="http://www.w3.org/2000/svg" xmlns:xlink="http://www.w3.org/1999/xlink" x="0px" y="0px"
	 viewBox="0 0 23 23" enable-background="new 0 0 23 23" xml:space="preserve">
<g id="meter">
	<path fill="#fff" d="M11.5,23C17.8516,23,23,17.8516,23,11.5S17.8516,0,11.5,0C5.1484,0,0,5.1484,0,11.5S5.1484,23,11.5,23z
		 M11.5,1C17.29,1,22,5.7109,22,11.5S17.29,22,11.5,22S1,17.2891,1,11.5S5.71,1,11.5,1z"/>
	<rect x="11" y="3" fill="#fff" width="1" height="2"/>
	
		<rect x="7.2503" y="4.0047" transform="matrix(0.8661 -0.4999 0.4999 0.8661 -1.4641 4.5447)" fill="#fff" width="0.9993" height="2.0003"/>
	
		<rect x="4.5047" y="6.7496" transform="matrix(0.5001 -0.8659 0.8659 0.5001 -4.209 8.2074)" fill="#fff" width="0.9999" height="1.9999"/>
	
		<rect x="17.4952" y="14.2495" transform="matrix(0.5003 -0.8659 0.8659 0.5003 -4.2119 23.2014)" fill="#fff" width="0.9997" height="2.0006"/>
	<rect x="3" y="11" fill="#fff" width="2" height="1"/>
	<rect x="18" y="11" fill="#fff" width="2" height="1"/>
	
		<rect x="4.0048" y="14.7499" transform="matrix(0.8658 -0.5004 0.5004 0.8658 -6.9588 4.5502)" fill="#fff" width="1.9992" height="0.9997"/>
	
		<rect x="16.9949" y="7.2494" transform="matrix(0.8661 -0.4999 0.4999 0.8661 -1.4641 10.0341)" fill="#fff" width="2.0003" height="1.0002"/>
	
		<rect x="14.2495" y="4.505" transform="matrix(0.5004 -0.8658 0.8658 0.5004 3.2861 15.7042)" fill="#fff" width="2.0006" height="0.9997"/>
	<path fill="#fff" d="M11.5,16c0.8281,0,1.5-0.6719,1.5-1.5c0-0.6523-0.4189-1.2012-1-1.4082V7h-1v6.0918
		c-0.5811,0.207-1,0.7559-1,1.4082C10,15.3281,10.6719,16,11.5,16z"/>
	<rect x="9" y="18" fill="#fff" width="1" height="1"/>
	<rect x="11" y="18" fill="#fff" width="1" height="1"/>
	<rect x="13" y="18" fill="#fff" width="1" height="1"/>
</g>
</svg>
