<svg id="Grupo_36878" data-name="Grupo 36878" xmlns="http://www.w3.org/2000/svg" width="50.951" height="33.464" viewBox="0 0 50.951 33.464">
  <g id="Grupo_36867" data-name="Grupo 36867" transform="translate(0 0)">
    <g id="Grupo_36866" data-name="Grupo 36866" transform="translate(0 0)">
      <path id="Caminho_39071" data-name="Caminho 39071" d="M50.924,78.253a47.559,47.559,0,0,0-1.4-9.2,35.318,35.318,0,0,0-2.856-7.742c-4.442-7.806-9.265-6.6-15.04-5.077a41.338,41.338,0,0,1-5.838,1.142h-.635a41.338,41.338,0,0,1-5.838-1.142c-5.775-1.46-10.6-2.729-15.04,5.14a32.352,32.352,0,0,0-2.856,7.742,47.56,47.56,0,0,0-1.4,9.2,17.292,17.292,0,0,0,.888,7.235,4.81,4.81,0,0,0,3.046,2.856,6.2,6.2,0,0,0,4.062-.444,29.828,29.828,0,0,0,8.123-5.775c1.967-1.9,5.648-2.856,9.329-2.856s7.362.952,9.329,2.856a29.828,29.828,0,0,0,8.123,5.775,6.639,6.639,0,0,0,4.062.444,4.742,4.742,0,0,0,3.046-2.919A16.969,16.969,0,0,0,50.924,78.253ZM47.878,84.6a2.517,2.517,0,0,1-1.523,1.587,4.382,4.382,0,0,1-2.6-.317A25.881,25.881,0,0,1,36.391,80.6c-2.412-2.412-6.663-3.617-10.915-3.617s-8.5,1.206-10.979,3.49c-2.6,2.412-5.2,4.442-7.362,5.267a3.937,3.937,0,0,1-2.6.317A2.517,2.517,0,0,1,3.01,84.472a15.006,15.006,0,0,1-.635-6.092,43.774,43.774,0,0,1,1.333-8.758,30.281,30.281,0,0,1,2.665-7.171c3.49-6.283,7.552-5.267,12.375-4a37.227,37.227,0,0,0,6.219,1.206h.952A36.766,36.766,0,0,0,32.2,58.453c4.823-1.206,8.885-2.285,12.375,4a29.262,29.262,0,0,1,2.665,7.171,48.034,48.034,0,0,1,1.333,8.758A14.685,14.685,0,0,1,47.878,84.6Z" transform="translate(0 -55.109)" fill="#fff"/>
    </g>
  </g>
  <g id="Grupo_36869" data-name="Grupo 36869" transform="translate(6.564 6.326)">
    <g id="Grupo_36868" data-name="Grupo 36868" transform="translate(0 0)">
      <path id="Caminho_39072" data-name="Caminho 39072" d="M54.446,99.423a3.856,3.856,0,0,0-2.285-1.079,3.611,3.611,0,0,0-1.015-2.221l-.063-.063a3.594,3.594,0,0,0-2.6-1.079,3.747,3.747,0,0,0-2.6,1.079A3.689,3.689,0,0,0,44.8,98.344a3.781,3.781,0,0,0-2.285,1.015l-.063.063a3.594,3.594,0,0,0-1.079,2.6,3.747,3.747,0,0,0,1.079,2.6,3.538,3.538,0,0,0,2.348,1.079,3.385,3.385,0,0,0,1.079,2.285,3.594,3.594,0,0,0,2.6,1.079,3.747,3.747,0,0,0,2.6-1.079,3.856,3.856,0,0,0,1.079-2.285,3.385,3.385,0,0,0,2.285-1.079,3.594,3.594,0,0,0,1.079-2.6A3.747,3.747,0,0,0,54.446,99.423Zm-1.587,3.554a1.292,1.292,0,0,1-.952.381h-.888a1.2,1.2,0,0,0-1.206,1.206v.825a1.333,1.333,0,1,1-2.665,0V104.5a1.2,1.2,0,0,0-1.206-1.206h-.888a1.3,1.3,0,0,1-.952-2.221l.063-.063a1.516,1.516,0,0,1,.888-.317h.888a1.2,1.2,0,0,0,1.206-1.206V98.6a1.346,1.346,0,0,1,2.285-.952l.063.063a1.516,1.516,0,0,1,.317.888v.888a1.2,1.2,0,0,0,1.206,1.206h.888a1.346,1.346,0,0,1,.952,2.285Z" transform="translate(-41.373 -94.981)" fill="#fff"/>
    </g>
  </g>
  <g id="Grupo_36871" data-name="Grupo 36871" transform="translate(34.297 6.643)">
    <g id="Grupo_36870" data-name="Grupo 36870">
      <ellipse id="Elipse_130" data-name="Elipse 130" cx="2.221" cy="2.221" rx="2.221" ry="2.221" fill="#fff"/>
    </g>
  </g>
  <g id="Grupo_36873" data-name="Grupo 36873" transform="translate(34.297 15.655)">
    <g id="Grupo_36872" data-name="Grupo 36872">
      <ellipse id="Elipse_131" data-name="Elipse 131" cx="2.221" cy="2.221" rx="2.221" ry="2.221" fill="#fff"/>
    </g>
  </g>
  <g id="Grupo_36875" data-name="Grupo 36875" transform="translate(29.791 11.149)">
    <g id="Grupo_36874" data-name="Grupo 36874" transform="translate(0 0)">
      <ellipse id="Elipse_132" data-name="Elipse 132" cx="2.221" cy="2.221" rx="2.221" ry="2.221" fill="#fff"/>
    </g>
  </g>
  <g id="Grupo_36877" data-name="Grupo 36877" transform="translate(38.802 11.149)">
    <g id="Grupo_36876" data-name="Grupo 36876" transform="translate(0 0)">
      <ellipse id="Elipse_133" data-name="Elipse 133" cx="2.221" cy="2.221" rx="2.221" ry="2.221" fill="#fff"/>
    </g>
  </g>
</svg>
