<svg xmlns="http://www.w3.org/2000/svg" width="47.583" height="41.821" viewBox="0 0 47.583 41.821"><path d="M15.331,27.881H40.613a1.394,1.394,0,0,0,1.34-1.011L47.529,7.353a1.394,1.394,0,0,0-1.34-1.777H12.116l-1-4.485A1.394,1.394,0,0,0,9.758,0H1.394a1.394,1.394,0,1,0,0,2.788H8.64l5.033,22.65a4.182,4.182,0,0,0,1.661,8.019H40.613a1.394,1.394,0,1,0,0-2.788H15.334a1.394,1.394,0,0,1,0-2.788ZM44.341,8.364l-4.78,16.729H16.452L12.735,8.364Zm0,0" transform="translate(0 0)" fill="#fff"/><path d="M150,364.182A4.182,4.182,0,1,0,154.182,360,4.187,4.187,0,0,0,150,364.182Zm4.182-1.394a1.394,1.394,0,1,1-1.394,1.394A1.4,1.4,0,0,1,154.182,362.788Zm0,0" transform="translate(-136.06 -326.543)" fill="#fff"/><path d="M362,364.182A4.182,4.182,0,1,0,366.182,360,4.187,4.187,0,0,0,362,364.182Zm4.182-1.394a1.394,1.394,0,1,1-1.394,1.394A1.4,1.4,0,0,1,366.182,362.788Zm0,0" transform="translate(-328.357 -326.543)" fill="#fff"/></svg>