<svg xmlns="http://www.w3.org/2000/svg" width="37.593" height="35.197" viewBox="0 0 37.593 35.197"><g transform="translate(0 -16.314)"><g transform="translate(0 16.314)"><path d="M35.243,25.666H27.809a9.129,9.129,0,0,0,1.311-1.05,4.915,4.915,0,0,0,0-6.912,4.967,4.967,0,0,0-6.891,0c-1.017,1.022-3.722,5.183-3.348,7.963h-.169c.371-2.78-2.331-6.941-3.348-7.963a4.967,4.967,0,0,0-6.891,0,4.917,4.917,0,0,0,0,6.912,9.3,9.3,0,0,0,1.313,1.05H2.35A2.353,2.353,0,0,0,0,28.016v5.874a1.175,1.175,0,0,0,1.175,1.175H2.35v14.1a2.353,2.353,0,0,0,2.35,2.35H32.894a2.353,2.353,0,0,0,2.35-2.35v-14.1h1.175a1.175,1.175,0,0,0,1.175-1.175V28.016A2.353,2.353,0,0,0,35.243,25.666Zm-25.1-6.306a2.5,2.5,0,0,1,3.56,0c1.584,1.593,3.158,5.662,2.61,6.229a.775.775,0,0,1-.435.078c-1.624,0-4.723-1.687-5.735-2.707A2.563,2.563,0,0,1,10.138,19.36Zm7.483,29.8H4.7v-14.1H17.622Zm0-16.447H2.35v-4.7H17.622ZM23.895,19.36a2.531,2.531,0,0,1,3.56,3.6c-1.013,1.02-4.112,2.707-5.735,2.707a.772.772,0,0,1-.437-.078C20.737,25.022,22.311,20.953,23.895,19.36Zm9,29.8H19.971v-14.1H32.894Zm2.35-16.447H19.971v-4.7H35.243Z" transform="translate(0 -16.314)" fill="#fff"/></g></g></svg>