<svg xmlns="http://www.w3.org/2000/svg" width="45.909" height="37.631" viewBox="0 0 45.909 37.631">
  <g id="support" transform="translate(0 0)">
    <g id="Grupo_8990" data-name="Grupo 8990" transform="translate(0 0)">
      <g id="Grupo_8989" data-name="Grupo 8989">
        <path id="Caminho_8269" data-name="Caminho 8269" d="M107.315,41.206h-31.5a3.432,3.432,0,0,0-3.4,3.436v19.77a3.432,3.432,0,0,0,3.4,3.436H97.529l4.914,5.006a1.047,1.047,0,0,0,.756.339,1.09,1.09,0,0,0,1.092-1.1V67.849h3.024a3.432,3.432,0,0,0,3.4-3.436V44.642A3.432,3.432,0,0,0,107.315,41.206ZM80.644,58.219a3.182,3.182,0,1,1,3.15-3.182A3.189,3.189,0,0,1,80.644,58.219Zm11.046,0a3.182,3.182,0,1,1,3.15-3.182A3.189,3.189,0,0,1,91.691,58.219Zm11,0a3.182,3.182,0,1,1,3.15-3.182A3.189,3.189,0,0,1,102.7,58.219Z" transform="translate(-64.808 -41.206)" fill="#fff"/>
        <path id="Caminho_8270" data-name="Caminho 8270" d="M5.671,203.952v-6.746H2.227A2.252,2.252,0,0,0,0,199.455v12.982a2.221,2.221,0,0,0,2.226,2.333H4.2v2.8a.74.74,0,0,0,.714.721.692.692,0,0,0,.5-.212l3.234-3.267H22.934a2.252,2.252,0,0,0,2.226-2.249V209.34H11.006A5.369,5.369,0,0,1,5.671,203.952Z" transform="translate(0 -180.66)" fill="#fff"/>
      </g>
    </g>
  </g>
</svg>
