<svg xmlns="http://www.w3.org/2000/svg" width="29.726" height="29.66" viewBox="0 0 29.726 29.66"><defs><style>.a{fill:#fff;}</style></defs><g transform="translate(0)"><g transform="translate(0)"><path class="a" d="M22.606,62.91a2.086,2.086,0,0,0-3.149,0c-.736.728-1.472,1.457-2.2,2.2a.434.434,0,0,1-.606.111c-.476-.259-.984-.469-1.441-.753a22.818,22.818,0,0,1-5.505-5,13.009,13.009,0,0,1-1.973-3.154.451.451,0,0,1,.111-.58c.736-.71,1.454-1.438,2.177-2.166a2.083,2.083,0,0,0-.006-3.216c-.575-.58-1.151-1.148-1.726-1.728C7.7,48.03,7.11,47.431,6.51,46.845a2.1,2.1,0,0,0-3.149.006c-.742.728-1.454,1.475-2.208,2.191A3.573,3.573,0,0,0,.027,51.455a10.2,10.2,0,0,0,.792,4.4,26.728,26.728,0,0,0,4.757,7.906,29.428,29.428,0,0,0,9.749,7.61,14.123,14.123,0,0,0,5.4,1.568,3.962,3.962,0,0,0,3.4-1.29c.631-.7,1.342-1.345,2.01-2.018a2.1,2.1,0,0,0,.012-3.2Q24.381,64.666,22.606,62.91Z" transform="translate(-0.006 -43.29)"/><path class="a" d="M244.56,104.776l2.283-.389A10.235,10.235,0,0,0,238.176,96l-.322,2.29a7.91,7.91,0,0,1,6.706,6.487Z" transform="translate(-223.141 -90.075)"/><path class="a" d="M252.726,4.8a16.845,16.845,0,0,0-9.65-4.8l-.322,2.29a14.671,14.671,0,0,1,12.427,12.017l2.283-.389A16.9,16.9,0,0,0,252.726,4.8Z" transform="translate(-227.738)"/></g></g></svg>