<svg xmlns="http://www.w3.org/2000/svg" viewBox="0 0 64 64"><g id="Layer_41" data-name="Layer 41"><path d="M60,11.2H54.54V9.47a1,1,0,0,0-1-1h-5a1,1,0,0,0-1,1V11.2h-31V9.47a1,1,0,0,0-1-1h-5a1,1,0,0,0-1,1V11.2H4a1,1,0,0,0-1,1V27.93a1,1,0,0,0,1,1H9.46v1.72a1,1,0,0,0,1,1h5a1,1,0,0,0,1-1V28.93h5a1.68,1.68,0,0,1,1.68,1.68v9.27H21.41a1,1,0,0,0-1,1v5a1,1,0,0,0,1,1h1.73v7.62a1,1,0,0,0,1,1H39.86a1,1,0,0,0,1-1V46.91h1.73a1,1,0,0,0,1-1v-5a1,1,0,0,0-1-1H40.86V30.61a1.68,1.68,0,0,1,1.68-1.68h5v1.72a1,1,0,0,0,1,1h5a1,1,0,0,0,1-1V28.93H60a1,1,0,0,0,1-1V12.2A1,1,0,0,0,60,11.2ZM5,26.93V13.2H9.46V26.93Zm9.49,2.72h-3V10.47h3ZM38.86,53.53H25.14V46.91H38.86Zm2.73-8.62H22.41v-3H41.59Zm.95-18a3.68,3.68,0,0,0-3.68,3.68v9.27H25.14V30.61a3.68,3.68,0,0,0-3.68-3.68h-5V13.2h31V26.93Zm10,2.72h-3V10.47h3ZM59,26.93H54.54V13.2H59Z"/></g></svg>