<svg id="whatsapp" xmlns="http://www.w3.org/2000/svg" width="40.177" height="40.582" viewBox="0 0 40.177 40.582">
  <g id="Grupo_8992" data-name="Grupo 8992" transform="translate(0 0)">
    <path id="Caminho_8274" data-name="Caminho 8274" d="M20.094,0h-.01A20.32,20.32,0,0,0,3.824,32.184l-2.5,7.538,7.722-2.493a19.773,19.773,0,0,0,11.051,3.353A20.292,20.292,0,0,0,20.094,0ZM31.783,28.654c-.485,1.382-2.408,2.529-3.942,2.864-1.05.226-2.421.406-7.036-1.527-5.9-2.47-9.705-8.53-10-8.923s-2.386-3.209-2.386-6.12a6.505,6.505,0,0,1,2.054-4.938,2.9,2.9,0,0,1,2.054-.728c.249,0,.472.013.673.023.59.025.886.061,1.276,1,.485,1.179,1.665,4.091,1.805,4.39a1.218,1.218,0,0,1,.085,1.1,3.507,3.507,0,0,1-.65.931c-.3.345-.578.609-.874.979-.271.322-.578.667-.236,1.263a17.985,17.985,0,0,0,3.259,4.091,14.738,14.738,0,0,0,4.711,2.935,1.261,1.261,0,0,0,1.416-.226,24.53,24.53,0,0,0,1.569-2.1A1.115,1.115,0,0,1,27,23.226c.542.19,3.413,1.623,4,1.92s.979.441,1.122.692A5.1,5.1,0,0,1,31.783,28.654Z" transform="translate(0 0)" fill="#fff"/>
  </g>
</svg>
